<svg width="16" height="21" viewBox="0 0 16 21" fill="none" xmlns="http://www.w3.org/2000/svg">
<g clip-path="url(#clip0_1567_424)">
<path d="M8.60427 6.22898L8.90618 6.61011C8.90618 6.61011 9.62381 7.51605 7.66499 9.98888C5.70617 12.4617 4.98854 11.5558 4.98854 11.5558L4.79842 11.3158C4.33006 10.7245 3.5781 10.6688 3.02915 11.1846L1.90622 12.2398C1.22677 12.8783 1.13702 14.1121 1.71671 14.8439L2.75717 16.1574C3.04461 16.5202 3.41722 16.7634 3.83057 16.7339C4.88804 16.6585 7.16327 16.0579 9.81787 12.7067C12.633 9.15287 12.7449 5.81836 12.6436 4.4548C12.6116 4.0235 12.4366 3.6484 12.1971 3.34613L11.2555 2.15738C10.6198 1.35495 9.53012 1.58119 9.08548 2.60788L8.3931 4.20665C8.10115 4.88078 8.18692 5.7021 8.60427 6.22898Z" fill="#374957"/>
</g>
<defs>
<clipPath id="clip0_1567_424">
<rect width="20.0839" height="16" fill="white" transform="matrix(0 -1 1 0 0 20.084)"/>
</clipPath>
</defs>
</svg>
